<?xml version="1.0" standalone="no"?><!DOCTYPE svg PUBLIC "-//W3C//DTD SVG 1.1//EN" "http://www.w3.org/Graphics/SVG/1.1/DTD/svg11.dtd"><svg t="1514601095844" class="icon" style="" viewBox="0 0 1024 1024" version="1.1" xmlns="http://www.w3.org/2000/svg" p-id="2666" xmlns:xlink="http://www.w3.org/1999/xlink" width="64" height="64"><defs><style type="text/css"></style></defs><path d="M0 0h1024v1024H0V0z m224 532.8c0 3.2 1.6 6.4 4.8 8 19.2 6.4 32 16 38.4 25.6 9.6 17.6 14.4 38.4 14.4 64v107.2c0 25.6 6.4 44.8 22.4 60.8 12.8 14.4 28.8 22.4 48 22.4h54.4c4.8 0 8-3.2 8-8v-32c0-4.8-3.2-8-8-8h-28.8c-11.2-1.6-19.2-8-25.6-20.8-4.8-11.2-6.4-24-6.4-40v-97.6c0-16-1.6-30.4-8-44.8-4.8-12.8-9.6-22.4-16-28.8-6.4-8-12.8-12.8-19.2-17.6-6.4-3.2-12.8-4.8-16-8 8-1.6 20.8-9.6 35.2-24 6.4-8 12.8-17.6 16-28.8 4.8-11.2 8-25.6 8-41.6V320c0-17.6 1.6-32 6.4-44.8 4.8-12.8 12.8-19.2 25.6-19.2h28.8c4.8 0 8-3.2 8-8v-33.6c0-4.8-3.2-8-8-8H352c-19.2 0-35.2 6.4-48 22.4-14.4 14.4-22.4 35.2-22.4 62.4V400c0 24-4.8 44.8-14.4 62.4-3.2 9.6-9.6 16-17.6 19.2-3.2 3.2-9.6 6.4-19.2 8-3.2 0-6.4 4.8-6.4 8v35.2z m392 280c0 4.8 3.2 8 8 8h54.4c20.8 0 36.8-8 51.2-22.4 12.8-16 19.2-36.8 19.2-60.8v-108.8c0-25.6 4.8-46.4 16-64 6.4-11.2 19.2-19.2 38.4-25.6 3.2-1.6 4.8-4.8 4.8-8v-36.8c0-3.2-1.6-6.4-4.8-8-20.8-6.4-32-16-38.4-27.2-11.2-17.6-16-38.4-16-64V288c0-25.6-6.4-46.4-19.2-62.4-14.4-14.4-32-22.4-51.2-22.4H624c-4.8 0-8 3.2-8 8v33.6c0 4.8 3.2 8 8 8h27.2c11.2 0 20.8 6.4 25.6 19.2s8 27.2 8 44.8v96c0 17.6 1.6 32 8 44.8 4.8 11.2 9.6 20.8 16 30.4 6.4 8 12.8 12.8 19.2 17.6 3.2 1.6 8 3.2 12.8 8-8 1.6-17.6 9.6-32 24-6.4 8-11.2 17.6-16 30.4-4.8 11.2-8 25.6-8 43.2v99.2c0 16-3.2 28.8-8 40-4.8 12.8-12.8 20.8-24 20.8H624c-4.8 0-8 3.2-8 8v33.6z" fill="#ea557f" p-id="2667"></path></svg>