<?xml version="1.0" standalone="no"?><!DOCTYPE svg PUBLIC "-//W3C//DTD SVG 1.1//EN" "http://www.w3.org/Graphics/SVG/1.1/DTD/svg11.dtd"><svg width="50" height="50" viewBox="0 0 200 200" version="1.1" xmlns="http://www.w3.org/2000/svg" xmlns:xlink="http://www.w3.org/1999/xlink"><defs><style type="text/css"><![CDATA[
@font-face { font-family: ifont; src: url(http://at.alicdn.com/t/font_1442373896_4754455.eot?#iefix) format(embedded-opentype), url(http://at.alicdn.com/t/font_1442373896_4754455.woff) format(woff), url(http://at.alicdn.com/t/font_1442373896_4754455.ttf) format(truetype), url(http://at.alicdn.com/t/font_1442373896_4754455.svg#ifont) format(svg); }

]]></style></defs><g class="transform-group"><g transform="scale(0.1953125, 0.1953125)"><path d="M864.763482 472.674894c-66.955881-184.870313-204.865696-346.757192-352.763993-472.674894-147.898297 125.917702-285.809136 287.804581-352.763993 472.674894-39.9703 113.924565-44.964029 237.846822 12.995976 345.764586 66.954858 122.919418 197.866289 204.865696 339.768018 204.865696s272.81316-81.946278 339.768018-204.865696C909.727511 710.521716 904.733782 586.599459 864.763482 472.674894L864.763482 472.674894zM738.84578 758.484029c-43.971423 82.949118-133.908692 136.907999-226.846291 136.907999-54.961721 0-107.927997-18.982311-151.89942-50.960598 12.995976 2.988051 26.984557 2.988051 39.980533 2.988051 115.92001 0 229.835366-66.944625 282.800618-170.881731 44.974262-84.944563 40.973139-173.880015 23.98525-244.835996 14.991421 28.990236 27.977164 56.967399 36.972016 83.951957 10.990298 31.978287 18.993567 69.952119 22.983434 112.921726C770.824066 671.544022 761.829214 715.515445 738.84578 758.484029z" fill="#1194e5"></path></g></g></svg>